<svg xmlns="http://www.w3.org/2000/svg" viewBox="0 0 179.2 192.7">
  <defs>
    <style>
      .cls-1 { fill: #6ea1f6; }
      .cls-2 { fill: #4285f4; }

      .cls-3 { fill: #eb4637; }
      .cls-4 { fill: #4b5051; }
    </style>
  </defs>
  <title>ngx-google-maps-places</title>
  <g>
    <polygon class="cls-1" points="89.4 0 89.4 0 89.4 0 0 32 13.5 150.4 89.4 192.7 89.4 192.7 89.4 192.7 165.4 150.4 179.2 32 89.4 0" />
    <polygon class="cls-2" points="89.4 0 89.4 21.4 89.4 21.4 89.4 118.7 89.4 118.7 89.4 192.7 89.4 192.7 165.4 150.4 179.2 32 89.4 0" />
  </g>
  <g transform="scale(0.41) translate(19, 55)">
    <path class="cls-3" d="M195.000 49.866 C 166.302 51.615 139.600 72.572 130.611 100.400 C 124.410 119.597 125.731 141.557 134.225 160.455 C 136.007 164.421 136.386 166.531 135.586 168.026 C 135.217 168.716 135.310 168.800 136.448 168.800 C 139.083 168.800 142.183 173.615 141.205 176.187 C 140.656 177.632 140.636 177.600 142.069 177.600 C 143.776 177.600 144.207 178.096 158.032 196.000 C 173.646 216.220 181.240 227.267 185.391 235.800 C 187.365 239.858 188.404 242.561 192.586 254.511 C 197.008 267.146 204.824 266.322 208.804 252.800 C 209.290 251.150 210.680 247.280 211.894 244.200 C 217.545 229.855 222.856 221.685 245.219 192.937 C 249.300 187.692 253.488 182.193 254.527 180.717 C 256.753 177.555 257.712 176.800 259.503 176.800 C 260.689 176.800 260.785 176.719 260.414 176.026 C 258.946 173.283 262.088 167.600 265.073 167.600 C 265.896 167.600 266.024 167.469 265.756 166.900 C 265.127 165.567 265.523 162.987 266.813 160.000 C 275.596 139.659 276.394 115.834 268.922 97.000 C 256.781 66.395 227.729 47.871 195.000 49.866 M210.600 95.625 C 235.026 103.198 242.320 132.499 224.144 150.033 C 205.279 168.230 173.662 157.146 170.034 131.063 C 166.902 108.543 189.262 89.010 210.600 95.625" />
    <path class="cls-4" d="M294.233 24.900 C 293.457 26.093 291.106 31.641 290.206 34.400 C 288.353 40.087 286.892 41.717 282.131 43.409 C 266.636 48.917 266.417 49.908 279.600 54.854 C 286.935 57.605 287.675 58.228 289.556 63.235 C 295.354 78.664 296.175 78.910 300.793 66.600 C 304.074 57.852 304.399 57.515 312.152 54.832 C 325.017 50.379 324.630 48.768 309.400 43.393 C 305.275 41.937 303.718 40.423 302.206 36.400 C 297.416 23.651 296.193 21.887 294.233 24.900 M324.320 99.481 C 323.970 99.876 322.873 101.940 321.885 104.066 C 319.875 108.387 319.113 109.087 314.299 111.045 C 308.452 113.422 308.480 115.118 314.408 117.621 C 318.984 119.553 319.855 120.382 321.910 124.762 C 325.244 131.871 326.511 131.895 329.334 124.903 C 331.154 120.394 331.112 120.429 339.314 116.602 C 342.755 114.997 342.047 113.171 337.200 111.153 C 332.595 109.237 331.426 108.095 329.030 103.172 C 326.848 98.689 325.772 97.845 324.320 99.481 M262.813 168.650 C 258.353 172.403 258.927 175.294 265.000 179.664 C 268.798 182.398 269.625 182.989 306.200 209.134 C 333.786 228.853 334.958 229.708 336.933 231.562 C 341.066 235.440 340.416 238.806 334.733 242.950 C 329.534 246.740 317.031 255.714 305.600 263.860 C 292.918 272.897 270.594 288.902 264.400 293.397 C 262.310 294.914 259.160 297.168 257.400 298.406 C 255.640 299.644 252.220 302.091 249.800 303.845 C 246.052 306.562 238.387 312.043 217.600 326.875 C 211.062 331.540 207.303 332.956 201.400 332.978 C 193.651 333.006 192.987 332.656 171.000 316.916 C 162.200 310.617 152.930 303.994 150.400 302.200 C 147.870 300.406 143.730 297.436 141.200 295.601 C 134.524 290.760 124.037 283.242 97.200 264.058 C 63.598 240.039 63.633 240.066 62.958 237.374 C 62.163 234.207 63.926 232.306 75.000 224.386 C 91.887 212.309 126.328 187.670 130.173 184.915 C 132.388 183.329 135.677 181.007 137.482 179.756 C 142.200 176.485 142.669 173.998 139.247 170.401 C 136.922 167.957 135.828 168.123 130.947 171.660 C 127.364 174.255 98.953 194.596 81.000 207.418 C 52.853 227.521 52.198 228.176 52.202 236.200 C 52.206 242.485 54.496 245.994 62.292 251.653 C 70.742 257.786 120.922 293.762 128.600 299.190 C 132.273 301.787 135.098 303.819 143.133 309.644 C 146.286 311.930 150.786 315.163 153.133 316.829 C 155.480 318.496 163.250 324.049 170.400 329.169 C 186.849 340.950 189.578 342.348 197.778 343.197 C 209.829 344.446 214.484 342.274 240.200 323.399 C 241.740 322.268 247.410 318.193 252.800 314.342 C 258.190 310.491 269.080 302.685 277.000 296.996 C 284.920 291.307 293.020 285.505 295.000 284.103 C 299.213 281.119 302.318 278.903 319.230 266.816 C 349.859 244.925 350.200 244.590 350.200 236.392 C 350.200 229.197 348.130 226.488 336.000 217.812 C 331.710 214.743 319.290 205.855 308.400 198.060 C 297.510 190.265 285.450 181.635 281.600 178.882 C 277.750 176.129 272.690 172.464 270.356 170.738 C 265.655 167.262 264.758 167.014 262.813 168.650" />
  </g>
</svg>
